<svg xmlns="http://www.w3.org/2000/svg" viewBox="0 0 128 128">
  <!-- Background circle -->
  <circle cx="64" cy="64" r="60" fill="#FF4500" />

  <!-- Antenna stick -->
  <line x1="64" y1="18" x2="78" y2="8" stroke="white" stroke-width="3" stroke-linecap="round"/>
  <!-- Antenna ball -->
  <circle cx="80" cy="7" r="4" fill="white" />

  <!-- Snoo head (oval) -->
  <ellipse cx="64" cy="46" rx="30" ry="24" fill="white" />

  <!-- Eyes -->
  <circle cx="53" cy="44" r="5" fill="#FF4500" />
  <circle cx="75" cy="44" r="5" fill="#FF4500" />

  <!-- Smile -->
  <path d="M54 54 Q64 62 74 54" stroke="#FF4500" stroke-width="2.5" fill="none" stroke-linecap="round"/>

  <!-- Ears -->
  <circle cx="33" cy="36" r="7" fill="white" />
  <circle cx="95" cy="36" r="7" fill="white" />

  <!-- Body -->
  <ellipse cx="64" cy="82" rx="22" ry="16" fill="white" />

  <!-- Arms -->
  <path d="M42 78 Q28 72 26 84" stroke="white" stroke-width="6" fill="none" stroke-linecap="round"/>
  <path d="M86 78 Q100 72 102 84" stroke="white" stroke-width="6" fill="none" stroke-linecap="round"/>

  <!-- Feet -->
  <ellipse cx="52" cy="100" rx="10" ry="5" fill="white" />
  <ellipse cx="76" cy="100" rx="10" ry="5" fill="white" />

  <!-- Small download arrow badge (bottom-right) -->
  <circle cx="100" cy="100" r="18" fill="#228B22" stroke="#FF4500" stroke-width="2"/>
  <path d="M100 88 L100 106" stroke="white" stroke-width="4" stroke-linecap="round"/>
  <path d="M92 100 L100 108 L108 100" stroke="white" stroke-width="4" stroke-linecap="round" stroke-linejoin="round" fill="none"/>
</svg>
